<?xml version="1.0" encoding="utf-8"?>
<svg xmlns="http://www.w3.org/2000/svg" viewBox="0 0 1932 254">
	<title>A short tune, in musical notation.</title>
	<path class="StaffLines" d="M-.003 113.101h1931.12M-.003 137.901h1931.12M-.003 162.701h1931.12M-.003 187.501h1931.12M-.003 212.301h1931.12" fill="none" stroke="#000" stroke-linejoin="bevel" stroke-width="2.73"/>
	<path class="SlurSegment" d="M1258.188 107.397c13.12-41.526 67.26-68.434 108.29-53.816-37.49-7.512-91.64 19.396-108.29 53.816" fill-rule="evenodd" stroke="#000" stroke-linecap="round" stroke-linejoin="round" stroke-width="1.24"/>
	<path class="BarLine" d="M1906.067 111.737v101.928" fill="none" stroke="#000" stroke-linejoin="bevel" stroke-width="4.46"/>
	<path class="BarLine" d="M1924.297 111.737v101.928" fill="none" stroke="#000" stroke-linejoin="bevel" stroke-width="13.64"/>
	<path class="BarLine" d="M1174.634 150.301c0-2.876-2.281-5.257-5.158-5.257s-5.159 2.38-5.159 5.257 2.282 5.258 5.159 5.258 5.158-2.38 5.158-5.258M1174.634 175.101c0-2.876-2.281-5.257-5.158-5.257s-5.159 2.38-5.159 5.257 2.282 5.258 5.159 5.258 5.158-2.38 5.158-5.258" style="stroke-width:.992001"/>
	<path class="BarLine" d="M1186.027 111.737v101.928" fill="none" stroke="#000" stroke-linejoin="bevel" stroke-width="4.46"/>
	<path class="BarLine" d="M1204.257 111.737v101.928" fill="none" stroke="#000" stroke-linejoin="bevel" stroke-width="13.64"/>
	<path class="BarLine" d="M1705.797 111.737v101.928M713.074 111.737v101.928M1460.877 111.737v101.928" fill="none" stroke="#000" stroke-linejoin="bevel" stroke-width="4.46"/>
	<path class="LedgerLine" d="M1342.177 88.301h48.59M1485.927 88.301h48.59" fill="none" stroke="#000" stroke-linejoin="bevel" stroke-width="3.97"/>
	<path class="Stem" d="M1495.347 92.468v82.633M595.27 154.468v76.538M524.62 166.868v70.128M639.893 142.068v82.633M1351.597 80.068v82.633M452.432 142.068v82.633M747.546 129.668v76.433M1243.317 142.068v82.633M1632.617 142.068v82.633M380.244 142.068v82.633M818.195 129.668v76.433M1093.367 129.668v82.633M862.82 129.668v76.538M1048.737 142.068v82.738M978.097 154.468v76.328M933.467 142.068v70.128" fill="none" stroke="#000" stroke-linejoin="bevel" stroke-width="2.48"/>
	<path class="Note" d="M932.227 142.068c0 4.265 3.076 9.027 11.11 9.027 10.318 0 21.13-8.432 21.13-17.162 0-5.853-4.96-9.126-11.11-9.126-9.622 0-21.13 8.134-21.13 17.26M1515.237 75.207c-9.622 0-21.13 8.035-21.13 17.26 0 4.266 3.076 9.028 11.11 9.028 10.318 0 21.13-8.432 21.13-17.162 0-5.853-4.96-9.126-11.11-9.126m-2.678 17.46c-.298.198-7.54 4.166-11.011 4.166-3.274 0-3.968-2.679-3.968-3.572 0-4.166 9.92-9.027 10.316-9.225s7.44-4.167 11.012-4.167c2.38 0 3.968 1.39 3.968 3.571 0 4.266-10.02 9.028-10.317 9.226M976.857 154.468c0 4.265 3.076 9.027 11.11 9.027 10.318 0 21.13-8.432 21.13-17.162 0-5.853-4.96-9.126-11.11-9.126-9.622 0-21.13 8.134-21.13 17.26M1757.578 87.21c-13.69 0-18.55 6.944-18.55 13.392s4.86 13.392 18.55 13.392 18.451-6.944 18.451-13.392-4.762-13.392-18.451-13.392m5.06 23.015c-1.191.396-2.779.595-4.267.595-2.777 0-4.662-.794-5.952-3.274s-3.075-8.829-3.174-11.507c-.198-2.679.794-4.266 3.174-5.06 1.19-.396 2.778-.595 4.266-.595 2.778 0 4.563.596 5.952 3.274s3.174 9.027 3.174 11.507c0 2.58-.793 4.365-3.174 5.06M861.58 129.668c0 4.265 3.075 9.027 11.11 9.027 10.317 0 21.13-8.432 21.13-17.162 0-5.853-4.96-9.126-11.11-9.126-9.623 0-21.13 8.134-21.13 17.26M1047.498 142.068c0 4.265 3.075 9.027 11.11 9.027 10.317 0 21.13-8.432 21.13-17.162 0-5.853-4.96-9.126-11.11-9.126-9.623 0-21.13 8.134-21.13 17.26M816.955 129.668c0 4.265 3.076 9.027 11.11 9.027 10.318 0 21.13-8.432 21.13-17.162 0-5.853-4.96-9.126-11.11-9.126-9.622 0-21.13 8.134-21.13 17.26M1092.128 129.668c0 4.265 3.075 9.027 11.11 9.027 10.317 0 21.13-8.432 21.13-17.162 0-5.853-4.96-9.126-11.11-9.126-9.623 0-21.13 8.134-21.13 17.26M379.004 142.068c0 4.265 3.076 9.027 11.11 9.027 10.318 0 21.13-8.432 21.13-17.162 0-5.853-4.96-9.126-11.11-9.126-9.622 0-21.13 8.134-21.13 17.26M746.306 129.668c0 4.265 3.076 9.027 11.11 9.027 10.318 0 21.13-8.432 21.13-17.162 0-5.853-4.96-9.126-11.11-9.126-9.622 0-21.13 8.134-21.13 17.26M1263.207 124.807c-9.622 0-21.13 8.035-21.13 17.26 0 4.266 3.076 9.028 11.11 9.028 10.318 0 21.13-8.432 21.13-17.162 0-5.853-4.96-9.126-11.11-9.126m-2.678 17.46c-.298.197-7.54 4.166-11.011 4.166-3.274 0-3.968-2.679-3.968-3.572 0-4.166 9.92-9.027 10.316-9.225s7.44-4.167 11.012-4.167c2.38 0 3.968 1.39 3.968 3.572 0 4.265-10.02 9.027-10.317 9.225M638.653 142.068c0 4.265 3.076 9.027 11.11 9.027 10.318 0 21.13-8.432 21.13-17.162 0-5.853-4.96-9.126-11.11-9.126-9.622 0-21.13 8.134-21.13 17.26M594.03 154.468c0 4.265 3.075 9.027 11.11 9.027 10.317 0 21.13-8.432 21.13-17.162 0-5.853-4.96-9.126-11.11-9.126-9.623 0-21.13 8.134-21.13 17.26M1371.487 62.807c-9.622 0-21.13 8.035-21.13 17.26 0 4.266 3.076 9.028 11.11 9.028 10.318 0 21.13-8.432 21.13-17.162 0-5.853-4.96-9.126-11.11-9.126m-2.678 17.46c-.298.198-7.54 4.166-11.011 4.166-3.274 0-3.968-2.679-3.968-3.572 0-4.166 9.92-9.027 10.316-9.225s7.44-4.167 11.012-4.167c2.38 0 3.968 1.39 3.968 3.571 0 4.266-10.02 9.028-10.317 9.226M1631.378 142.068c0 4.265 3.075 9.027 11.11 9.027 10.317 0 21.13-8.432 21.13-17.162 0-5.853-4.96-9.126-11.11-9.126-9.623 0-21.13 8.134-21.13 17.26M523.38 166.868c0 4.265 3.076 9.027 11.11 9.027 10.318 0 21.13-8.432 21.13-17.162 0-5.853-4.96-9.126-11.11-9.126-9.622 0-21.13 8.134-21.13 17.26M451.192 142.068c0 4.265 3.076 9.027 11.11 9.027 10.318 0 21.13-8.432 21.13-17.162 0-5.853-4.96-9.126-11.11-9.126-9.622 0-21.13 8.134-21.13 17.26" style="stroke-width:.992001"/>
	<path class="Clef" d="M74.348 189.585c0 7.043-2.877 14.284-9.92 17.161-2.083-11.904-4.762-27.677-5.456-32.042 8.928 0 15.376 6.052 15.376 14.88m-14.086 18.353c-1.984.396-3.87.595-5.754.595-14.186 0-26.288-9.92-26.288-24.9 0-12.102 8.531-22.915 17.26-30.454 1.687-1.488 3.274-2.877 4.762-4.365.893 5.357 1.588 10.02 2.282 14.087-9.027 2.678-15.178 12.201-15.178 21.526 0 6.944 5.456 16.467 13.392 16.467.794 0 1.687-.396 1.687-1.29 0-.892-.992-1.388-2.183-2.182-3.868-2.38-6.05-4.96-6.05-9.82 0-6.052 4.463-10.913 10.316-12.301zm-8.73-101.978c.893-3.968 5.456-14.384 10.614-14.384 1.488 0 3.87 4.86 3.87 11.705 0 10.317-7.64 18.055-14.484 24.8-.595-3.968-1.091-7.836-1.091-12.003 0-3.67.297-7.043 1.09-10.118M30.7 238.39c0 6.547 5.06 15.178 18.451 15.178 4.663 0 8.73-1.19 12.3-3.373 5.358-3.77 6.747-10.317 6.747-16.567 0-3.868-.596-8.332-1.588-13.987-.297-1.984-.892-4.96-1.488-8.829 9.722-3.174 16.964-13.292 16.964-23.51 0-14.98-10.615-25.098-25.098-25.098-.992-5.952-1.984-11.805-2.877-17.36 10.515-11.01 17.757-23.411 17.757-39.184 0-9.027-2.778-16.368-4.365-19.939-2.38-5.06-5.257-8.531-7.043-8.531-.694 0-3.77 1.19-7.043 5.059-6.35 7.54-8.135 20.237-8.135 28.57 0 5.356.496 10.217 2.183 21.328-.1.099-5.258 5.356-7.341 7.043-9.027 8.432-21.527 20.435-21.527 40.275 0 18.55 16.17 33.133 34.621 33.133 2.877 0 5.556-.298 7.837-.694 1.885 9.523 2.976 16.467 2.976 21.724 0 10.317-5.257 15.773-15.277 15.773-2.38 0-4.464-.496-4.662-.496-.1-.099-.298-.198-.298-.297 0-.199.199-.298.496-.397 4.663-.695 9.325-4.663 9.325-11.011 0-5.357-4.067-11.012-11.507-11.012-6.944 0-11.408 5.655-11.408 12.202" style="stroke-width:.992001"/>
	<path class="KeySig" d="M120.61 154.864c-.595-3.868-2.976-7.539-8.035-7.539-4.96 0-7.837 3.075-8.333 3.67l.396-31.843c0-.793-.595-1.388-1.388-1.388h-1.19c-.794 0-1.39.595-1.39 1.388l.496 59.62c0 .793.596 1.389 1.39 1.389.198 0 .594-.1.793-.199.397-.198 6.845-3.373 12.201-9.424 3.77-4.266 5.258-9.126 5.258-13.194 0-.892-.1-1.686-.198-2.48m-6.845 3.87c0 1.487-.397 6.05-2.877 9.82-1.686 2.58-5.06 5.258-6.944 6.746l.298-19.344c.198-.893 1.686-3.77 5.654-3.77 3.571 0 3.869 3.373 3.869 5.456zM148.184 117.664c-.595-3.868-2.976-7.539-8.036-7.539-4.96 0-7.836 3.075-8.332 3.67l.396-31.843c0-.793-.595-1.388-1.388-1.388h-1.19c-.794 0-1.39.595-1.39 1.388l.496 59.62c0 .793.596 1.389 1.39 1.389.198 0 .594-.1.793-.199.397-.198 6.845-3.373 12.201-9.424 3.77-4.265 5.258-9.126 5.258-13.194 0-.892-.1-1.686-.198-2.48m-6.845 3.87c0 1.487-.397 6.05-2.877 9.82-1.686 2.58-5.06 5.258-6.944 6.746l.298-19.344c.198-.893 1.686-3.77 5.654-3.77 3.571 0 3.869 3.373 3.869 5.456zM175.759 167.264c-.595-3.868-2.976-7.539-8.035-7.539-4.96 0-7.837 3.075-8.333 3.67l.396-31.843c0-.793-.595-1.388-1.388-1.388h-1.19c-.794 0-1.39.595-1.39 1.388l.496 59.62c0 .793.596 1.389 1.39 1.389.198 0 .594-.1.793-.199.397-.198 6.845-3.373 12.202-9.424 3.77-4.265 5.257-9.126 5.257-13.194 0-.892-.1-1.686-.198-2.48m-6.845 3.87c0 1.487-.397 6.05-2.877 9.82-1.686 2.58-5.06 5.258-6.944 6.746l.298-19.344c.198-.893 1.686-3.77 5.654-3.77 3.571 0 3.869 3.373 3.869 5.456zM203.333 130.064c-.595-3.868-2.976-7.539-8.036-7.539-4.96 0-7.836 3.075-8.332 3.67l.396-31.843c0-.793-.595-1.388-1.388-1.388h-1.19c-.794 0-1.39.595-1.39 1.388l.496 59.62c0 .793.596 1.389 1.39 1.389.198 0 .594-.1.793-.199.397-.198 6.845-3.373 12.201-9.424 3.77-4.265 5.258-9.126 5.258-13.194 0-.892-.1-1.686-.198-2.48m-6.845 3.87c0 1.487-.397 6.05-2.877 9.82-1.686 2.58-5.06 5.258-6.944 6.746l.298-19.344c.198-.893 1.686-3.77 5.654-3.77 3.571 0 3.869 3.373 3.869 5.456zM230.908 179.664c-.595-3.868-2.976-7.539-8.035-7.539-4.96 0-7.837 3.075-8.333 3.67l.396-31.843c0-.793-.595-1.388-1.388-1.388h-1.19c-.794 0-1.39.595-1.39 1.388l.496 59.62c0 .793.596 1.389 1.39 1.389.198 0 .594-.1.793-.199.397-.198 6.845-3.373 12.202-9.424 3.77-4.265 5.257-9.126 5.257-13.194 0-.892-.1-1.686-.198-2.48m-6.845 3.87c0 1.487-.397 6.05-2.877 9.82-1.686 2.58-5.06 5.258-6.944 6.746l.298-19.344c.198-.893 1.686-3.77 5.654-3.77 3.571 0 3.869 3.373 3.869 5.456zM258.482 142.464c-.595-3.868-2.976-7.539-8.036-7.539-4.96 0-7.836 3.075-8.332 3.67l.396-31.843c0-.793-.595-1.388-1.388-1.388h-1.19c-.794 0-1.39.595-1.39 1.388l.496 59.62c0 .793.596 1.389 1.39 1.389.198 0 .594-.1.793-.199.397-.198 6.845-3.373 12.202-9.424 3.77-4.265 5.257-9.126 5.257-13.194 0-.892-.1-1.686-.198-2.48m-6.845 3.87c0 1.487-.397 6.05-2.877 9.82-1.686 2.58-5.06 5.258-6.944 6.746l.298-19.344c.198-.893 1.686-3.77 5.654-3.77 3.571 0 3.869 3.373 3.869 5.456z" style="stroke-width:.992001"/>
	<path class="TimeSig" d="M315.718 144.944c-2.48 1.588-4.266 4.464-4.266 7.639 0 .397 0 .793.1 1.19.495 4.068 3.769 7.242 7.836 7.738h1.091a8.89 8.89 0 0 0 8.928-8.928v-.595c0-.397-.1-1.092-.198-1.488-.893-4.266-4.762-13.392-21.626-13.392-21.626 0-24.106 17.955-24.106 24.403 0 11.805 1.488 26.586 26.289 26.586 9.82 0 17.459-5.754 17.856-16.368 0-.496-.298-.794-.794-.794h-1.29c-.396 0-.793.397-.793.794-.397 8.233-6.25 13.193-14.98 13.193-8.63 0-12.796-4.662-12.796-13.392v-18.947c0-5.555 2.182-11.904 11.01-11.904 4.663 0 6.747 1.686 7.838 3.373.099.198.099.297.099.496 0 .099 0 .297-.198.396" style="stroke-width:.992001"/>
	<path class="Expression" d="m1252.828 13.35-9.1.75-.15 1.8h1.2c2 0 2.8.45 2.8 1.6 0 .45-.15 1.2-.4 2.15l-5.1 17.2h4.35l2.05-7.05c2.25-7.65 6.8-13.45 10.55-13.45 1.3 0 2.1.7 2.1 1.95 0 1-.4 3.1-1 5l-4 13.55h4.35l2.15-7.25c1.25-4.15 2.5-6.95 4.1-9.1 1.8-2.5 4.35-4.15 6.25-4.15 1.25 0 1.95.65 1.95 1.85 0 .7-.25 1.8-.7 3.2l-2.3 7.1c-1.35 3.9-1.4 4.2-1.4 5.6 0 2.1 1.55 3.5 3.9 3.5 1.65 0 3.25-.8 4.95-2.4 1.05-1 1.75-1.9 3.8-4.9l-1.55-1.05c-2.6 3.9-4.45 5.8-5.75 5.8-.55 0-1.05-.55-1.05-1.25 0-.45.15-1 .6-2.45l3.15-9.7c.35-1.1.6-2.65.6-3.75 0-2.65-1.95-4.55-4.65-4.55-3.55 0-6.75 2.3-9.65 7.05.2-.95.3-1.8.3-2.4 0-2.65-2.1-4.65-4.85-4.65-3.15 0-5.45 1.75-8.95 6.75zm46.59 0c-3.3 0-6.45 1.5-9.2 4.3-2.8 2.85-4.2 6.4-4.2 10.6 0 5.75 3.45 9.35 8.9 9.35 3.65 0 6.65-1.35 9.1-4.1 2.7-3 4.25-6.95 4.25-10.7 0-5.2-4-9.45-8.85-9.45m-.25 1.9c2.75 0 4.35 2.3 4.35 6.15 0 2.6-1 6.6-2.35 9.35-1.7 3.45-3.55 4.95-6.2 4.95-2.9 0-4.45-1.85-4.45-5.25 0-4.7 2.4-15.2 8.65-15.2m26.3-15.25-9.95.75-.2 1.8h1.55c2.05 0 2.85.45 2.85 1.55 0 .5-.15 1.15-.45 2.2l-6.35 21.45c-1.2 4.1-1.35 4.75-1.35 6.35 0 2.15 1.25 3.5 3.25 3.5 3.15 0 6.35-2.65 9.35-7.75l-1.55-.85c-2.6 3.95-4.75 6.05-6.15 6.05-.55 0-.9-.4-.9-1.05 0-.6 0-.65.65-2.75zm15.39 5.8h-4.35l-2.45 8.3h-4.7l-.7 2.35h4.7l-3.75 12.6c-.75 2.55-.95 3.6-.95 4.75 0 2.15 1.55 3.8 3.6 3.8 2.35 0 5.15-1.55 6.9-3.9.7-.95 1.2-1.75 2.5-3.85l-1.5-1c-3.15 4.75-4.55 6.1-6.2 6.1-.7 0-1.15-.55-1.15-1.4 0-.4.05-.75.15-1.15l4.75-15.95h5.45l.7-2.35h-5.45zm17.29 7.55c-3.3 0-6.45 1.5-9.2 4.3-2.8 2.85-4.2 6.4-4.2 10.6 0 5.75 3.45 9.35 8.9 9.35 3.65 0 6.65-1.35 9.1-4.1 2.7-3 4.25-6.95 4.25-10.7 0-5.2-4-9.45-8.85-9.45m-.25 1.9c2.75 0 4.35 2.3 4.35 6.15 0 2.6-1 6.6-2.35 9.35-1.7 3.45-3.55 4.95-6.2 4.95-2.9 0-4.45-1.85-4.45-5.25 0-4.7 2.4-15.2 8.65-15.2m42.54 15c-2.5 3.25-5.15 4.95-7.55 4.95-2.95 0-4.65-2.15-4.65-5.95 0-4.75 2.85-14 8.85-14 1.6 0 3.2.8 3.2 1.65 0 .3-.25.55-.8.75-1.35.6-1.85 1.2-1.85 2.4 0 1.45 1.1 2.45 2.65 2.45 1.8 0 3.15-1.6 3.15-3.75 0-3-2.9-5.4-6.5-5.4-7 0-13.3 7.2-13.3 15.25 0 5.45 3.35 9 8.6 9 3.75 0 7-2.1 9.65-6.25zm24.53-16.15-1.35 4.5c-.35-3.1-2.85-5.25-6.1-5.25-7.55 0-12.3 9.5-12.3 16.1 0 4.9 2.95 8.15 7.4 8.15 3.15 0 5.1-1.25 7.6-4.85-.2.75-.25 1.1-.25 1.6 0 1.95 1.25 3.25 3.05 3.25 4 0 6.8-4.55 8.3-7.8l-1.55-.85c-1.9 3.85-3.65 5.9-4.95 5.9-.6 0-1.05-.55-1.05-1.25 0-.55.2-1.4.55-2.7l5-16.8zm-6.6 2c2.35 0 3.8 1.65 3.8 4.45 0 2.9-1 6.85-2.55 10-1.55 3.1-3.35 4.5-5.85 4.5s-4-1.85-4-4.9c0-4.5 2.8-14.05 8.6-14.05m26.94-2.75-9.05.75-.2 1.8h1.2c2.05 0 2.85.45 2.85 1.55 0 .5-.1 1.05-.45 2.2l-5.1 17.2h4.35l2.05-6.95c1.3-4.35 1.9-5.75 3.7-8.4 2.15-3.2 4.8-5.15 6.95-5.15 1.15 0 2 .9 2 2.05 0 .9-.2 1.9-.75 3.5l-2.65 7.8c-.65 2-.9 3.1-.9 4.15 0 2.15 1.5 3.75 3.45 3.75 3.2 0 6.5-2.7 9.2-7.5l-1.45-1.05c-2.55 4-4.65 6-6.25 6-.45 0-.85-.4-.85-.95s.15-1.15.95-3.35l2.35-6.9c.8-2.3 1.2-4.2 1.2-5.65 0-2.65-2.15-4.85-4.8-4.85-2.95 0-5.9 2.15-9.25 6.75zm32.55-7.55h-4.35l-2.45 8.3h-4.7l-.7 2.35h4.7l-3.75 12.6c-.75 2.55-.95 3.6-.95 4.75 0 2.15 1.55 3.8 3.6 3.8 2.35 0 5.15-1.55 6.9-3.9.7-.95 1.2-1.75 2.5-3.85l-1.5-1c-3.15 4.75-4.55 6.1-6.2 6.1-.7 0-1.15-.55-1.15-1.4 0-.4.05-.75.15-1.15l4.75-15.95h5.45l.7-2.35h-5.45zm23.58 8.3-1.35 4.5c-.35-3.1-2.85-5.25-6.1-5.25-7.55 0-12.3 9.5-12.3 16.1 0 4.9 2.95 8.15 7.4 8.15 3.15 0 5.1-1.25 7.6-4.85-.2.75-.25 1.1-.25 1.6 0 1.95 1.25 3.25 3.05 3.25 4 0 6.8-4.55 8.3-7.8l-1.55-.85c-1.9 3.85-3.65 5.9-4.95 5.9-.6 0-1.05-.55-1.05-1.25 0-.55.2-1.4.55-2.7l5-16.8zm-6.6 2c2.35 0 3.8 1.65 3.8 4.45 0 2.9-1 6.85-2.55 10-1.55 3.1-3.35 4.5-5.85 4.5s-4-1.85-4-4.9c0-4.5 2.8-14.05 8.6-14.05m29.99-16.1-9.6.75-.2 1.8h1.2c2.05 0 2.85.45 2.85 1.6 0 .45-.1 1-.45 2.15l-6 20.2c-.45 1.6-.7 2.9-.7 3.95 0 4.35 3.2 7.15 8.15 7.15 3.9 0 6.85-1.2 9.6-3.85 3.25-3.15 5.05-7.35 5.05-11.9 0-5.15-2.9-8.5-7.35-8.5-2.9 0-5.05 1.2-7.85 4.55zm.9 16.4c2.55 0 4.05 1.95 4.05 5.2 0 5.05-3.15 14.1-9.3 14.1-2.7 0-4.3-1.8-4.3-4.85 0-5 3.45-14.45 9.55-14.45m23.05-15.25c-1.5 0-2.7 1.2-2.7 2.7 0 1.45 1.2 2.7 2.65 2.7 1.55 0 2.75-1.2 2.75-2.7s-1.2-2.7-2.7-2.7m.9 12.2-9.6.75-.2 1.8h1.2c2.05 0 2.85.45 2.85 1.55 0 .5-.1 1.05-.45 2.2l-2.9 9.75c-.95 3.2-1.1 3.9-1.1 5.05 0 1.75 1.5 3.1 3.4 3.1 4.3 0 7.25-4.45 9.35-7.7l-1.55-.85c-2.6 3.95-4.7 6.05-6.05 6.05-.5 0-.85-.45-.85-1.05 0-.5.2-1.4.6-2.8zM1569.468 0l-9.95.75-.2 1.8h1.55c2.05 0 2.85.45 2.85 1.55 0 .5-.15 1.15-.45 2.2l-6.35 21.45c-1.2 4.1-1.35 4.75-1.35 6.35 0 2.15 1.25 3.5 3.25 3.5 3.15 0 6.35-2.65 9.35-7.75l-1.55-.85c-2.6 3.95-4.75 6.05-6.15 6.05-.55 0-.9-.4-.9-1.05 0-.6 0-.65.65-2.75zm18.89 31.05c-2.95 3.05-5.1 4.2-7.75 4.2-3 0-4.85-2-4.85-5.2 0-.35.05-1.05.1-1.7 5.9-1.4 6.8-1.7 9.1-2.7 3.9-1.7 6-4.25 6-7.15 0-3.05-2.4-5.15-5.95-5.15-7.3 0-13.9 7.4-13.9 15.6 0 5.4 3.25 8.65 8.65 8.65 3.85 0 7.1-1.7 9.8-5.2zm-12.25-4.65c1.15-6.75 4.2-11.05 7.9-11.05 1.65 0 2.75 1.15 2.75 2.85 0 2.4-1.55 4.55-4.3 6.05-1.8 1.05-3.05 1.45-6.35 2.15M398.757 53.151l-1.35 4.5c-.35-3.1-2.85-5.25-6.1-5.25-7.55 0-12.3 9.5-12.3 16.1 0 4.9 2.95 8.15 7.4 8.15 3.15 0 5.1-1.25 7.6-4.85-.2.75-.25 1.1-.25 1.6 0 1.95 1.25 3.25 3.05 3.25 4 0 6.8-4.55 8.3-7.8l-1.55-.85c-1.9 3.85-3.65 5.9-4.95 5.9-.6 0-1.05-.55-1.05-1.25 0-.55.2-1.4.55-2.7l5-16.8zm-6.6 2c2.35 0 3.8 1.65 3.8 4.45 0 2.9-1 6.85-2.55 10-1.55 3.1-3.35 4.5-5.85 4.5s-4-1.85-4-4.9c0-4.5 2.8-14.05 8.6-14.05m30.187-16.1-9.95.75-.2 1.8h1.55c2.05 0 2.85.45 2.85 1.55 0 .5-.15 1.15-.45 2.2l-6.35 21.45c-1.2 4.1-1.35 4.75-1.35 6.35 0 2.15 1.25 3.5 3.25 3.5 3.15 0 6.35-2.65 9.35-7.75l-1.55-.85c-2.6 3.95-4.75 6.05-6.15 6.05-.55 0-.9-.4-.9-1.05 0-.6 0-.65.65-2.75zm16.641 0-9.95.75-.2 1.8h1.55c2.05 0 2.85.45 2.85 1.55 0 .5-.15 1.15-.45 2.2l-6.35 21.45c-1.2 4.1-1.35 4.75-1.35 6.35 0 2.15 1.25 3.5 3.25 3.5 3.15 0 6.35-2.65 9.35-7.75l-1.55-.85c-2.6 3.95-4.75 6.05-6.15 6.05-.55 0-.9-.4-.9-1.05 0-.6 0-.65.65-2.75zm21.741 14.1-1.35 4.5c-.35-3.1-2.85-5.25-6.1-5.25-7.55 0-12.3 9.5-12.3 16.1 0 4.9 2.95 8.15 7.4 8.15 3.15 0 5.1-1.25 7.6-4.85-.2.75-.25 1.1-.25 1.6 0 1.95 1.25 3.25 3.05 3.25 4 0 6.8-4.55 8.3-7.8l-1.55-.85c-1.9 3.85-3.65 5.9-4.95 5.9-.6 0-1.05-.55-1.05-1.25 0-.55.2-1.4.55-2.7l5-16.8zm-6.6 2c2.35 0 3.8 1.65 3.8 4.45 0 2.9-1 6.85-2.55 10-1.55 3.1-3.35 4.5-5.85 4.5s-4-1.85-4-4.9c0-4.5 2.8-14.05 8.6-14.05m40.878-2.75-9.1.75-.15 1.8h1.2c2 0 2.8.45 2.8 1.6 0 .45-.15 1.2-.4 2.15l-5.1 17.2h4.35l2.05-7.05c2.25-7.65 6.8-13.45 10.55-13.45 1.3 0 2.1.7 2.1 1.95 0 1-.4 3.1-1 5l-4 13.55h4.35l2.15-7.25c1.25-4.15 2.5-6.95 4.1-9.1 1.8-2.5 4.35-4.15 6.25-4.15 1.25 0 1.95.65 1.95 1.85 0 .7-.25 1.8-.7 3.2l-2.3 7.1c-1.35 3.9-1.4 4.2-1.4 5.6 0 2.1 1.55 3.5 3.9 3.5 1.65 0 3.25-.8 4.95-2.4 1.05-1 1.75-1.9 3.8-4.9l-1.55-1.05c-2.6 3.9-4.45 5.8-5.75 5.8-.55 0-1.05-.55-1.05-1.25 0-.45.15-1 .6-2.45l3.15-9.7c.35-1.1.6-2.65.6-3.75 0-2.65-1.95-4.55-4.65-4.55-3.55 0-6.75 2.3-9.65 7.05.2-.95.3-1.8.3-2.4 0-2.65-2.1-4.65-4.85-4.65-3.15 0-5.45 1.75-8.95 6.75zm52.737.75-1.35 4.5c-.35-3.1-2.85-5.25-6.1-5.25-7.55 0-12.3 9.5-12.3 16.1 0 4.9 2.95 8.15 7.4 8.15 3.15 0 5.1-1.25 7.6-4.85-.2.75-.25 1.1-.25 1.6 0 1.95 1.25 3.25 3.05 3.25 4 0 6.8-4.55 8.3-7.8l-1.55-.85c-1.9 3.85-3.65 5.9-4.95 5.9-.6 0-1.05-.55-1.05-1.25 0-.55.2-1.4.55-2.7l5-16.8zm-6.6 2c2.35 0 3.8 1.65 3.8 4.45 0 2.9-1 6.85-2.55 10-1.55 3.1-3.35 4.5-5.85 4.5s-4-1.85-4-4.9c0-4.5 2.8-14.05 8.6-14.05m26.688-2.75-9.05.75-.2 1.8h1.2c2 0 2.9.45 2.9 1.4 0 .35-.2 1.4-.5 2.35l-5.1 17.2h4.35l2.35-7.9c1.85-6.25 6-12.55 8.3-12.55.7 0 .9.35.9 1.7s.85 2.15 2.35 2.15c1.7 0 2.95-1.35 2.95-3.2 0-2.15-1.65-3.7-3.95-3.7-2.8 0-5 1.65-7.65 5.8zm27.287 16.9c-2.5 3.25-5.15 4.95-7.55 4.95-2.95 0-4.65-2.15-4.65-5.95 0-4.75 2.85-14 8.85-14 1.6 0 3.2.8 3.2 1.65 0 .3-.25.55-.8.75-1.35.6-1.85 1.2-1.85 2.4 0 1.45 1.1 2.45 2.65 2.45 1.8 0 3.15-1.6 3.15-3.75 0-3-2.9-5.4-6.5-5.4-7 0-13.3 7.2-13.3 15.25 0 5.45 3.35 9 8.6 9 3.75 0 7-2.1 9.65-6.25zm15.788-29.1c-1.5 0-2.7 1.2-2.7 2.7 0 1.45 1.2 2.7 2.65 2.7 1.55 0 2.75-1.2 2.75-2.7s-1.2-2.7-2.7-2.7m.9 12.2-9.6.75-.2 1.8h1.2c2.05 0 2.85.45 2.85 1.55 0 .5-.1 1.05-.45 2.2l-2.9 9.75c-.95 3.2-1.1 3.9-1.1 5.05 0 1.75 1.5 3.1 3.4 3.1 4.3 0 7.25-4.45 9.35-7.7l-1.55-.85c-2.6 3.95-4.7 6.05-6.05 6.05-.5 0-.85-.45-.85-1.05 0-.5.2-1.4.6-2.8zm24.89.75-1.35 4.5c-.35-3.1-2.85-5.25-6.1-5.25-7.55 0-12.3 9.5-12.3 16.1 0 4.9 2.95 8.15 7.4 8.15 3.15 0 5.1-1.25 7.6-4.85-.2.75-.25 1.1-.25 1.6 0 1.95 1.25 3.25 3.05 3.25 4 0 6.8-4.55 8.3-7.8l-1.55-.85c-1.9 3.85-3.65 5.9-4.95 5.9-.6 0-1.05-.55-1.05-1.25 0-.55.2-1.4.55-2.7l5-16.8zm-6.6 2c2.35 0 3.8 1.65 3.8 4.45 0 2.9-1 6.85-2.55 10-1.55 3.1-3.35 4.5-5.85 4.5s-4-1.85-4-4.9c0-4.5 2.8-14.05 8.6-14.05"/>
	<path class="Beam" d="m861.58 199.88 73.127 6.2v12.444l-73.128-6.2zM934.707 187.48l-27.28-2.314v12.445l27.28 2.313zM523.38 230.88l73.13-6.2v12.444l-73.13 6.2zM596.51 206.08l-27.28 2.312v12.444l27.28-2.312zM746.306 199.901h73.13v12.4h-73.13zM819.435 181.301h-27.28v12.4h27.28zM976.857 224.68l73.12-6.2v12.444l-73.12 6.2zM1049.978 199.88l-27.28 2.312v12.444l27.28-2.312z" fill-rule="evenodd"/>
	<path class="NoteDot" d="M1538.728 75.901c0 2.778 2.182 4.96 4.96 4.96s4.96-2.182 4.96-4.96-2.183-4.96-4.96-4.96-4.96 2.183-4.96 4.96M568.004 150.301c0 2.778 2.183 4.96 4.96 4.96s4.96-2.182 4.96-4.96-2.182-4.96-4.96-4.96-4.96 2.183-4.96 4.96M790.93 125.501c0 2.778 2.183 4.96 4.96 4.96s4.96-2.182 4.96-4.96-2.182-4.96-4.96-4.96-4.96 2.183-4.96 4.96M1021.478 150.301c0 2.778 2.182 4.96 4.96 4.96s4.96-2.182 4.96-4.96-2.183-4.96-4.96-4.96-4.96 2.183-4.96 4.96M906.207 125.501c0 2.778 2.183 4.96 4.96 4.96s4.96-2.182 4.96-4.96-2.182-4.96-4.96-4.96-4.96 2.183-4.96 4.96" style="stroke-width:.992001"/>
</svg>
